<?xml version="1.0" standalone="no"?>
<!DOCTYPE svg PUBLIC "-//W3C//DTD SVG 20010904//EN"
 "http://www.w3.org/TR/2001/REC-SVG-20010904/DTD/svg10.dtd">
<svg version="1.0" xmlns="http://www.w3.org/2000/svg"
 width="1280.000000pt" height="720.000000pt" viewBox="0 0 1280.000000 720.000000"
 preserveAspectRatio="xMidYMid meet">

<g transform="translate(0.000000,720.000000) scale(0.100000,-0.100000)"
fill="#000000" stroke="none">
<path d="M0 3600 l0 -3600 6400 0 6400 0 0 3600 0 3600 -6400 0 -6400 0 0
-3600z m9803 2913 c21 -37 40 -77 43 -90 4 -13 26 -45 50 -73 46 -50 53 -74
80 -250 3 -19 8 -42 10 -50 3 -8 7 -53 10 -100 4 -78 20 -124 31 -92 3 6 9 12
14 12 4 0 6 -7 3 -15 -4 -9 -1 -15 7 -15 25 0 41 17 37 37 -1 11 2 19 7 19 6
-1 9 -5 7 -10 -1 -4 0 -17 3 -27 5 -14 12 -18 31 -13 18 5 24 2 24 -10 0 -9
-6 -16 -14 -16 -10 0 -12 -7 -9 -21 6 -21 3 -20 -49 9 l-56 30 -11 -25 c-7
-14 -9 -28 -6 -32 11 -10 65 -9 65 2 0 5 7 3 16 -4 10 -8 38 -15 65 -16 39 -1
48 2 52 18 7 27 35 24 64 -7 20 -22 29 -25 58 -20 32 6 35 5 35 -16 0 -19 -2
-20 -10 -8 -6 9 -10 10 -10 3 0 -6 5 -15 10 -18 17 -10 12 -45 -5 -39 -8 4
-15 12 -15 20 0 8 -4 14 -10 14 -14 0 -13 -7 6 -35 9 -14 20 -22 25 -19 8 4
14 -23 11 -47 -4 -26 21 -185 29 -190 7 -4 3 -28 -11 -68 -31 -93 -37 -198
-14 -250 22 -50 45 -51 50 -2 3 19 11 42 19 51 8 9 15 25 15 34 0 10 5 16 13
13 6 -2 21 -1 32 4 17 7 16 8 -7 8 -34 1 -34 5 -3 56 31 50 55 101 55 117 1
39 78 90 192 129 59 19 96 19 83 0 -3 -6 -12 -8 -19 -5 -7 3 -16 -2 -19 -10
-4 -11 1 -14 20 -13 24 2 29 -4 42 -48 9 -27 19 -55 23 -61 4 -6 5 -27 2 -47
-2 -21 0 -37 6 -37 5 0 10 -14 10 -31 0 -17 -4 -28 -10 -24 -16 10 -11 -7 5
-19 15 -11 20 -57 13 -113 -3 -25 -32 -63 -48 -63 -18 0 -11 18 10 25 26 8 26
25 1 25 -23 0 -34 -28 -26 -62 6 -26 -28 -74 -45 -63 -5 3 -10 0 -10 -7 0 -14
-46 -68 -58 -68 -4 0 -45 -36 -90 -81 -92 -89 -92 -89 -180 -47 -37 17 -46 18
-57 7 -20 -22 -44 -107 -55 -199 -6 -47 -17 -112 -26 -145 -29 -119 -144 -322
-229 -405 -20 -19 -50 -55 -67 -80 -17 -25 -47 -64 -67 -87 -20 -22 -70 -80
-111 -128 -73 -85 -100 -112 -205 -208 -130 -118 -142 -123 -310 -134 -202
-14 -296 3 -382 68 -104 78 -361 344 -459 476 -37 48 -86 111 -109 138 -95
113 -111 139 -138 235 -14 52 -29 115 -33 140 -4 25 -11 53 -16 63 -5 9 -9 38
-10 64 0 26 -9 67 -19 91 -11 24 -19 52 -19 63 0 28 -28 35 -61 15 -37 -22
-102 -23 -131 -3 -43 29 -286 272 -307 307 -25 42 -27 116 -6 204 8 32 11 71
8 87 -7 35 42 185 64 193 20 8 101 -21 130 -47 12 -10 31 -47 44 -80 12 -34
33 -84 46 -110 28 -56 9 -54 -29 3 -13 19 -44 47 -70 63 l-47 29 -29 -23 c-20
-17 -34 -42 -44 -82 -19 -70 -5 -86 21 -24 23 54 29 58 67 48 22 -6 31 -16 39
-45 6 -20 23 -47 37 -59 26 -21 26 -24 15 -75 -9 -45 -9 -58 6 -85 9 -18 19
-44 22 -59 7 -28 39 -68 56 -68 6 0 10 25 9 63 -3 107 -1 117 16 117 9 0 22 7
29 16 10 15 17 11 59 -34 26 -28 56 -60 65 -71 10 -12 23 -21 29 -21 22 0 19
31 -9 90 -62 131 -89 351 -56 455 14 46 53 121 66 129 4 3 19 -25 31 -62 12
-37 32 -85 43 -107 18 -37 19 -40 2 -50 -9 -5 -31 -22 -48 -37 -18 -15 -40
-30 -49 -34 -22 -7 -24 -24 -3 -24 9 0 47 16 85 35 38 19 76 35 84 35 7 0 19
7 26 15 7 8 23 15 37 15 13 0 41 9 63 20 58 30 70 24 25 -12 -84 -69 -143
-141 -101 -125 9 4 28 -16 54 -56 22 -34 60 -81 84 -105 l44 -42 96 -3 c95 -2
96 -2 136 31 23 17 46 32 52 32 12 0 6 -28 -14 -68 -16 -32 -153 -169 -193
-194 -18 -11 -33 -24 -33 -29 0 -20 139 61 193 112 57 55 140 125 158 133 21
10 40 -1 23 -12 -6 -4 -13 -15 -17 -25 -4 -9 -23 -27 -42 -38 -43 -26 -42 -31
5 -17 26 9 47 28 83 80 53 76 75 84 89 31 7 -28 15 -33 78 -52 53 -16 73 -28
79 -44 9 -24 21 -271 31 -660 2 -91 0 -141 -7 -148 -8 -8 -22 -8 -50 1 -36 11
-150 60 -183 79 -10 5 -17 30 -20 77 -5 64 -6 67 -17 41 -35 -76 -1 -151 79
-177 24 -8 58 -23 76 -33 65 -38 218 -24 297 27 11 7 32 16 46 19 15 4 33 20
44 40 17 32 17 36 1 85 -10 29 -33 75 -53 103 -27 40 -36 63 -39 107 -2 32
-11 89 -19 127 -8 39 -16 95 -19 125 -2 30 -10 93 -17 139 -12 83 -12 84 12
102 34 26 41 24 66 -19 11 -21 34 -44 50 -52 15 -8 40 -23 56 -33 15 -10 27
-14 27 -8 0 22 29 10 96 -40 38 -28 87 -60 109 -70 72 -33 104 -18 42 19 -37
21 -157 155 -157 175 0 6 -14 21 -31 32 -30 20 -86 101 -76 111 2 3 19 -14 37
-37 46 -57 101 -79 202 -79 l79 0 57 54 c31 30 70 80 86 110 33 65 29 84 -29
150 -19 21 -35 40 -35 42 0 5 33 -8 100 -40 30 -14 62 -26 71 -26 9 0 49 -13
89 -30 82 -34 80 -33 80 -21 0 4 -75 58 -167 118 l-168 110 -245 5 c-195 4
-254 2 -290 -9 -84 -27 -100 -35 -100 -54 0 -15 -7 -19 -35 -19 -31 0 -36 4
-56 48 -17 37 -21 63 -20 125 1 42 -1 77 -6 77 -17 0 -67 -75 -69 -104 -2 -31
-10 -81 -19 -123 -4 -18 -12 -23 -35 -23 -20 0 -30 5 -30 15 0 8 -2 15 -4 15
-1 0 -34 11 -72 25 -64 23 -86 26 -284 30 -227 5 -268 0 -307 -37 -20 -19 -93
-52 -93 -42 0 22 68 134 82 134 5 0 19 9 31 20 12 11 27 18 33 16 16 -6 86 62
78 76 -4 6 1 8 14 4 11 -4 23 -3 26 2 3 5 31 22 61 37 31 15 61 36 68 46 6 10
17 19 24 19 7 0 13 8 13 18 0 9 15 34 33 55 32 37 57 48 57 25 0 -6 7 -19 16
-29 20 -22 12 -49 -16 -49 -11 0 -20 -5 -20 -11 0 -8 16 -10 53 -5 136 16 244
28 262 28 11 0 144 0 295 -1 223 -2 283 1 320 13 l45 16 -57 -4 c-84 -6 -333
12 -453 33 -27 5 -66 7 -85 5 -32 -4 -33 -4 -11 6 l24 11 -31 26 c-25 20 -30
29 -21 39 6 8 16 14 22 14 5 0 29 16 53 35 40 33 46 35 121 35 43 0 141 -4
218 -10 77 -5 156 -5 175 -1 l35 8 -35 6 c-259 47 -265 49 -272 98 -4 26 2 37
39 72 23 22 43 44 43 49 0 6 19 35 43 66 24 32 49 69 57 84 16 34 68 88 84 88
6 0 28 -31 49 -67z m2254 -48 c53 -12 72 -131 29 -182 -22 -25 -31 -28 -105
-31 l-81 -4 0 113 0 114 67 -3 c38 -1 78 -5 90 -7z m-167 -25 l0 -30 -60 0
c-33 0 -60 -4 -60 -10 0 -6 27 -10 60 -10 l60 0 0 -30 0 -30 -61 0 c-37 0 -58
-4 -54 -10 3 -5 31 -10 61 -10 53 0 54 0 54 -30 l0 -30 -95 0 -95 0 -1 98 c-1
53 -3 89 -6 80 -3 -12 -14 -18 -34 -18 l-29 0 0 -80 0 -80 -35 0 -35 0 0 80 0
80 -30 0 c-27 0 -30 3 -30 30 l0 30 195 0 195 0 0 -30z m410 10 c0 -18 -7 -20
-60 -20 -57 0 -60 -1 -60 -25 0 -24 3 -25 60 -25 33 0 60 -4 60 -9 0 -17 -26
-28 -65 -26 -41 2 -55 -7 -55 -37 0 -14 11 -18 62 -20 50 -2 63 -6 66 -20 3
-16 -6 -18 -82 -18 l-86 0 0 110 0 110 80 0 c73 0 80 -2 80 -20z m160 -91 c0
-108 -1 -111 -21 -106 -12 3 -32 2 -45 -3 -45 -17 -94 25 -94 80 0 56 49 97
95 80 23 -9 25 -7 25 19 0 31 7 41 27 41 10 0 13 -25 13 -111z m-3380 -419 c0
-5 -4 -10 -10 -10 -5 0 -10 5 -10 10 0 6 5 10 10 10 6 0 10 -4 10 -10z m1108
-1 c-2 -6 -8 -10 -13 -10 -5 0 -11 4 -13 10 -2 6 4 11 13 11 9 0 15 -5 13 -11z
m-1213 -19 c4 -6 -10 -10 -37 -9 -40 1 -41 2 -13 9 43 11 43 11 50 0z m1180 0
c3 -6 -1 -7 -9 -4 -18 7 -21 14 -7 14 6 0 13 -4 16 -10z m28 -37 c-7 -2 -19
-2 -25 0 -7 3 -2 5 12 5 14 0 19 -2 13 -5z m-1473 -7 c0 -3 -4 -8 -10 -11 -5
-3 -10 -1 -10 4 0 6 5 11 10 11 6 0 10 -2 10 -4z m1545 -57 c-6 -9 -65 -7 -65
3 0 10 22 15 47 10 13 -2 20 -8 18 -13z m-5595 -250 c27 -6 50 -14 50 -18 0
-12 -53 -58 -87 -75 -48 -24 -69 -20 -99 19 -23 31 -25 39 -16 60 10 21 18 25
56 25 25 0 68 -5 96 -11z m298 -34 c7 -7 -19 -73 -34 -86 -12 -10 -18 -10 -28
2 -18 19 -37 79 -30 91 6 9 82 3 92 -7z m3787 -75 c75 0 82 -2 113 -31 52 -48
45 -76 -39 -170 l-72 -79 -56 0 c-31 0 -73 -4 -94 -9 l-37 -9 -65 75 -65 74
22 38 c21 35 93 99 129 114 8 4 30 4 49 2 19 -3 71 -5 115 -5z m1206 -45 c92
-75 96 -83 60 -137 -16 -24 -45 -58 -65 -77 -35 -34 -35 -34 -103 -27 -128 12
-129 13 -193 88 -51 59 -60 75 -60 109 0 75 40 93 224 97 l69 2 68 -55z
m-7117 -506 c75 -21 73 -19 41 -45 -16 -13 -34 -24 -38 -24 -5 0 -25 -8 -44
-17 l-36 -17 -28 32 c-16 18 -29 39 -29 47 0 33 60 44 134 24z m286 -50 c0
-61 -53 -82 -68 -26 -12 42 -8 47 34 47 28 0 34 -4 34 -21z m3323 -99 c36 -17
34 -31 -8 -66 -67 -56 -128 -50 -155 16 -16 38 -5 62 31 70 30 7 95 -3 132
-20z m243 -34 c3 -8 0 -27 -8 -43 -18 -39 -58 -39 -71 0 -5 15 -6 34 -3 42 7
20 75 20 82 1z m5463 -5 c10 -6 12 -19 7 -42 -16 -83 -82 -92 -158 -21 -16 14
-28 30 -28 34 0 28 145 51 179 29z m-314 -63 c-10 -44 -22 -58 -52 -58 -16 0
-22 -4 -17 -12 4 -7 3 -8 -4 -4 -15 9 -15 46 -2 80 8 21 16 26 46 26 35 0 35
-1 29 -32z m-1395 -588 c0 -11 -4 -20 -9 -20 -5 0 -11 9 -14 20 -3 13 0 20 9
20 8 0 14 -9 14 -20z m-2110 -54 c0 -3 -4 -8 -10 -11 -5 -3 -10 -1 -10 4 0 6
5 11 10 11 6 0 10 -2 10 -4z m30 -6 c0 -5 -2 -10 -4 -10 -3 0 -8 5 -11 10 -3
6 -1 10 4 10 6 0 11 -4 11 -10z m1720 -74 c0 -3 -4 -8 -10 -11 -5 -3 -10 -1
-10 4 0 6 5 11 10 11 6 0 10 -2 10 -4z m-1631 -36 c3 -3 39 -43 80 -89 l73
-84 -7 -121 c-7 -133 -13 -166 -26 -166 -11 0 -129 177 -129 194 0 6 7 23 14
39 11 20 12 27 2 27 -6 0 -18 -16 -24 -34 -12 -32 -10 -40 14 -88 36 -72 97
-152 140 -185 20 -15 66 -52 103 -80 82 -66 253 -153 298 -153 12 0 35 -12 52
-26 30 -25 41 -53 61 -150 5 -27 13 -60 17 -74 6 -23 5 -24 -12 -10 -17 14
-17 13 -11 -10 10 -32 59 -104 106 -155 86 -92 117 -143 175 -290 40 -102 53
-155 69 -300 21 -183 20 -273 -4 -365 -19 -72 -46 -322 -37 -337 7 -12 -9
-141 -26 -208 -30 -118 -49 -251 -48 -329 1 -43 4 -82 7 -87 2 -5 6 -33 7 -63
3 -54 2 -56 -27 -66 -58 -20 -100 -84 -63 -94 87 -25 136 -56 88 -56 -11 0
-32 -14 -48 -30 -15 -17 -32 -30 -37 -30 -5 0 -17 -7 -27 -16 -13 -12 -15 -22
-9 -46 9 -30 6 -206 -3 -243 -3 -11 -6 -23 -6 -27 -1 -12 -31 -9 -31 2 0 13
-27 13 -35 0 -3 -6 3 -24 15 -40 20 -28 19 -35 -4 -31 -5 1 -12 -2 -15 -8 -3
-5 -12 -11 -20 -13 -17 -4 -24 34 -8 44 9 6 8 11 -3 18 -19 13 -30 13 -30 0 0
-5 -6 -10 -14 -10 -7 0 -20 -8 -27 -17 -10 -11 -10 -14 -1 -9 17 10 15 -2 -4
-21 -13 -13 -20 -14 -35 -5 -11 7 -20 8 -24 2 -3 -6 -27 -10 -51 -10 -61 0
-55 25 6 26 24 1 46 6 48 13 2 6 10 11 18 11 9 0 12 4 9 10 -11 17 -76 11
-102 -10 -14 -11 -31 -20 -38 -20 -7 0 -15 -6 -18 -13 -5 -14 -87 -11 -87 3 0
5 -9 12 -20 15 -11 3 -20 13 -20 21 0 8 -7 14 -15 14 -8 0 -15 4 -15 10 0 18
-43 51 -54 40 -5 -5 -15 -10 -20 -10 -6 0 -4 5 4 10 13 9 13 12 -1 23 -9 6
-16 20 -16 30 0 16 1 16 19 0 14 -13 21 -14 30 -5 9 9 8 12 -6 12 -15 0 -16 3
-6 15 7 9 10 18 6 22 -3 3 -6 1 -6 -5 0 -7 -9 -12 -20 -12 -11 0 -20 4 -20 9
0 14 22 26 43 23 24 -4 21 13 -5 25 -15 6 -18 12 -10 17 7 4 12 2 12 -5 0 -8
5 -7 17 2 13 11 17 11 20 1 3 -6 9 -9 15 -6 5 4 -4 19 -21 35 -17 15 -31 34
-30 41 0 10 2 10 6 1 8 -22 32 -15 26 7 -4 15 -11 19 -27 14 -17 -4 -15 -1 9
20 45 38 6 31 -64 -12 -3 -1 4 -8 14 -16 17 -12 17 -14 -6 -29 -39 -28 -65
-19 -36 12 10 12 9 13 -7 7 -17 -6 -18 -2 -13 28 4 22 1 36 -6 39 -9 3 -9 11
0 36 10 28 10 32 -3 27 -17 -7 -19 25 -2 42 6 6 8 15 4 19 -4 4 -11 1 -17 -7
-7 -10 -9 10 -8 65 1 44 -1 87 -5 96 -4 10 -3 20 3 24 17 10 13 28 -4 21 -8
-3 -15 -1 -15 4 0 6 7 10 15 10 8 0 15 5 15 10 0 6 -6 10 -14 10 -23 0 -28 17
-52 155 -2 17 -11 53 -19 80 -8 31 -14 95 -13 165 0 63 0 221 0 350 1 438 -1
416 64 646 8 28 14 67 14 87 0 20 5 48 11 64 6 15 11 89 11 164 l0 136 28 -10
c20 -8 38 -8 62 0 50 17 162 65 168 72 3 3 14 11 25 17 11 6 28 33 39 60 10
27 31 74 47 105 17 34 29 72 29 96 0 41 18 63 67 86 22 10 28 8 44 -12 11 -13
19 -17 19 -10 0 16 -30 49 -45 49 -6 0 -32 -13 -57 -29 -42 -27 -47 -34 -54
-78 -4 -26 -17 -61 -29 -78 -13 -16 -28 -55 -36 -85 -7 -30 -17 -60 -23 -66
-36 -38 -234 -122 -256 -109 -10 6 -26 38 -79 160 -29 66 -76 207 -91 274 -9
36 -11 91 -7 162 5 84 3 116 -9 144 -8 19 -17 85 -21 145 -7 130 -8 129 108
168 45 15 84 33 87 41 5 14 0 14 -93 -7 -22 -4 -51 -15 -65 -23 -14 -8 -32
-14 -40 -13 -8 1 -23 2 -33 3 -16 1 -17 3 -3 16 8 8 19 15 25 15 6 0 11 7 11
15 0 8 9 15 19 15 11 0 23 5 26 10 4 6 10 8 15 5 4 -3 14 2 21 11 9 11 10 17
2 22 -6 4 -15 20 -19 36 -4 19 -3 27 3 23 6 -4 14 3 18 16 5 17 8 18 12 7 3
-8 9 -17 12 -20z m1679 -20 c4 0 14 6 21 13 10 10 10 7 3 -13 -5 -13 -19 -27
-31 -30 -20 -5 -21 -7 -7 -25 14 -18 15 -18 16 -2 0 19 1 20 25 11 14 -6 14
-9 1 -29 -14 -21 -13 -23 10 -33 13 -7 24 -19 24 -27 0 -9 4 -14 9 -10 5 3 13
1 16 -5 4 -6 -7 -15 -25 -21 -28 -10 -29 -12 -13 -24 14 -11 16 -16 6 -26 -11
-11 -13 -9 -14 6 0 11 -3 14 -6 8 -7 -19 -31 -16 -55 7 -28 25 -135 78 -167
82 l-25 3 33 32 c31 31 56 35 73 9 4 -6 10 -7 15 -2 4 4 0 12 -10 17 -21 12
-22 33 -1 64 20 31 42 32 53 3 7 -21 8 -20 16 8 7 28 7 28 16 7 4 -13 12 -23
17 -23z m-1738 -30 c0 -5 -4 -10 -10 -10 -5 0 -10 5 -10 10 0 6 5 10 10 10 6
0 10 -4 10 -10z m-40 -36 c0 -2 -7 -4 -15 -4 -8 0 -15 4 -15 10 0 5 7 7 15 4
8 -4 15 -8 15 -10z m1680 -114 c22 -11 43 -28 49 -38 15 -28 1 -162 -24 -238
-22 -65 -23 -78 -15 -169 10 -105 7 -133 -20 -180 -10 -16 -30 -66 -45 -110
-15 -44 -30 -84 -35 -90 -11 -15 -60 -104 -86 -157 -13 -25 -29 -48 -36 -50
-17 -6 -127 43 -186 84 -119 82 -209 175 -217 225 -11 67 -35 111 -70 127 -42
20 -47 20 -79 -5 -24 -19 -26 -26 -26 -95 0 -53 3 -73 11 -68 8 4 10 28 6 69
-5 53 -3 65 13 80 25 23 74 12 99 -23 10 -15 22 -49 26 -77 9 -66 32 -102 118
-181 52 -47 100 -79 173 -115 56 -27 107 -49 113 -49 6 0 25 10 41 22 31 22
51 19 31 -6 -17 -20 -25 -255 -12 -351 5 -44 19 -132 31 -195 22 -127 29 -280
18 -440 -4 -58 -10 -154 -13 -215 -4 -60 -13 -146 -21 -190 -8 -44 -19 -116
-25 -160 -6 -44 -22 -111 -35 -150 -38 -115 -54 -181 -54 -222 0 -56 -29 -213
-45 -250 -8 -17 -15 -40 -15 -50 0 -10 -5 -24 -12 -31 -14 -14 -62 -16 -53 -2
3 6 16 10 28 10 18 0 19 2 7 10 -21 13 -63 13 -54 -1 4 -7 -4 -10 -22 -8 -16
2 -34 0 -41 -4 -6 -4 -19 -4 -30 -1 -13 4 -14 3 -5 -3 7 -5 10 -17 7 -25 -4
-9 1 -28 10 -42 14 -20 21 -24 35 -16 10 6 26 10 35 10 15 0 15 -2 1 -15 -8
-8 -19 -15 -24 -15 -4 0 -7 -12 -4 -28 6 -45 -62 -105 -83 -72 -5 9 16 15 38
11 5 -1 6 8 2 19 -5 15 -3 18 9 14 26 -10 19 22 -10 45 -17 14 -27 32 -29 53
-2 25 -8 34 -24 36 -24 4 -27 12 -9 30 9 9 8 12 -4 12 -9 0 -20 -5 -23 -10 -4
-6 -10 -8 -15 -5 -5 3 -11 1 -15 -5 -3 -5 1 -10 9 -10 9 0 16 -5 16 -11 0 -12
-51 -3 -60 10 -8 12 -40 21 -40 11 0 -5 9 -12 20 -15 27 -9 25 -18 -13 -56
-28 -28 -35 -44 -39 -87 -5 -51 -13 -71 -23 -60 -3 3 -1 17 4 31 7 18 7 28 0
33 -6 4 -7 10 0 17 6 8 6 29 1 57 -13 67 -12 110 4 126 8 8 17 14 20 14 3 0
14 8 24 17 11 10 33 26 50 35 50 27 44 59 -18 88 -27 13 -50 26 -50 29 0 3 21
13 48 21 31 10 46 20 45 30 -7 47 -24 114 -32 124 -16 19 -19 177 -5 246 7 36
17 92 22 125 5 33 12 69 15 80 21 78 26 126 28 240 1 90 7 158 21 220 33 142
35 174 22 306 -28 276 -39 333 -92 450 -11 24 -30 67 -42 94 -47 106 -66 162
-69 205 -2 25 -6 52 -11 59 -4 8 -6 -16 -3 -54 5 -50 3 -66 -6 -61 -6 4 -11
15 -11 25 0 10 -9 52 -20 94 -10 42 -20 110 -21 149 -2 62 1 81 24 127 31 62
30 61 18 61 -5 0 -23 -28 -40 -62 -26 -51 -31 -73 -31 -133 0 -40 7 -92 15
-115 18 -50 18 -50 6 -50 -15 0 -70 124 -86 195 -32 145 -34 147 -163 186 -82
25 -172 74 -232 126 -25 22 -66 54 -92 72 -45 30 -47 33 -34 54 13 20 38 158
38 215 0 12 6 22 12 22 6 0 45 -34 86 -76 89 -89 213 -195 255 -216 59 -30
161 -39 330 -29 88 5 176 14 195 20 32 10 95 62 211 176 20 19 39 35 44 35 4
0 4 -17 -1 -37 -4 -21 -7 -61 -6 -90 l1 -52 -57 -35 c-31 -18 -73 -39 -92 -44
-72 -21 -239 -90 -268 -111 -17 -11 -34 -21 -40 -21 -5 0 -15 -6 -21 -14 -10
-12 -7 -12 21 -2 18 6 47 19 64 28 17 9 82 35 145 58 142 52 173 66 226 102
23 15 44 28 47 28 10 0 127 82 156 109 49 45 79 158 49 177 -8 5 -10 -1 -6
-18 10 -37 -11 -99 -46 -136 -35 -36 -117 -92 -135 -92 -21 0 -13 73 19 165
41 120 50 129 117 121 30 -4 71 -15 92 -26z m210 -55 c0 -13 -4 -14 -20 -5
-11 6 -20 13 -20 15 0 3 9 5 20 5 11 0 20 -7 20 -15z m55 -45 c3 -5 2 -10 -4
-10 -5 0 -13 5 -16 10 -3 6 -2 10 4 10 5 0 13 -4 16 -10z m-8612 -242 c11
-142 26 -164 45 -69 21 102 52 101 67 -1 4 -27 11 -48 16 -48 5 0 9 2 9 4 0 3
11 62 26 133 2 12 0 25 -6 28 -24 15 -9 35 24 35 41 0 54 -15 33 -38 -8 -9
-22 -66 -31 -127 -23 -153 -33 -187 -54 -183 -12 2 -20 18 -25 53 -15 86 -17
95 -26 95 -5 0 -15 -32 -22 -72 -23 -117 -49 -99 -69 49 -6 43 -14 98 -16 123
-3 25 -12 55 -19 66 -16 25 -11 34 20 34 20 0 23 -6 28 -82z m382 62 c0 -8
-10 -16 -23 -18 -21 -3 -23 -8 -20 -50 l3 -47 53 -5 c65 -7 76 -1 70 39 -3 18
-1 34 4 37 15 9 -2 24 -28 24 -27 0 -31 12 -10 29 13 11 101 10 112 -2 9 -9
-6 -27 -22 -27 -17 0 -16 5 -14 -135 1 -105 3 -111 27 -131 17 -13 22 -23 15
-27 -14 -9 -119 -14 -126 -6 -11 11 5 37 25 42 17 5 20 13 17 59 l-3 53 -60 0
-60 0 0 -54 c0 -47 3 -54 23 -62 34 -13 25 -44 -13 -45 -53 -3 -95 7 -95 23 0
8 9 17 19 20 25 6 28 21 30 135 2 110 -3 128 -35 128 -30 0 -31 18 -1 30 35
15 112 8 112 -10z m315 -6 c0 -8 -5 -14 -11 -14 -15 0 -2 -50 17 -70 14 -13
17 -12 35 9 20 25 26 61 9 61 -14 0 -12 27 3 33 6 2 32 4 57 3 34 -1 46 -5 48
-18 2 -12 -5 -19 -22 -24 -19 -4 -33 -24 -60 -80 -50 -102 -48 -174 4 -166 8
1 22 -2 30 -8 12 -7 13 -13 4 -27 -9 -15 -25 -18 -95 -18 -77 1 -84 2 -84 20
0 15 8 21 33 23 31 3 32 4 32 54 0 68 -59 195 -92 200 -13 2 -24 11 -26 20 -2
12 5 17 30 20 51 5 88 -3 88 -18z m541 16 c0 -3 1 -27 2 -55 2 -59 -21 -71
-36 -18 -14 48 -83 69 -119 36 -35 -32 -10 -93 38 -93 51 0 101 -30 120 -71
17 -39 17 -42 -2 -76 -29 -55 -100 -78 -158 -52 -19 9 -29 9 -39 1 -21 -18
-27 -4 -27 60 0 66 12 73 41 24 14 -23 29 -35 49 -38 44 -7 86 15 94 48 10 37
-16 59 -78 68 -89 14 -116 109 -47 163 15 12 160 15 162 3z m184 -10 c0 -8
-10 -16 -23 -18 -21 -3 -23 -8 -20 -50 l3 -47 53 -5 c65 -7 76 -1 70 39 -3 18
-1 34 4 37 15 9 -2 24 -28 24 -26 0 -31 12 -11 28 14 12 88 14 107 2 15 -9 4
-30 -16 -30 -16 0 -16 7 -14 -135 1 -106 2 -111 27 -131 16 -13 22 -23 15 -27
-14 -9 -119 -14 -126 -6 -11 11 5 37 25 42 17 5 20 13 17 59 l-3 53 -60 0 -60
0 0 -54 c0 -47 3 -54 23 -62 34 -13 25 -44 -13 -45 -53 -3 -95 7 -95 23 0 8 9
17 19 20 25 6 31 31 31 140 0 108 -4 123 -36 123 -30 0 -31 18 -1 30 35 15
112 8 112 -10z m401 2 c41 -34 58 -75 60 -144 3 -77 -10 -118 -47 -154 -28
-27 -83 -40 -123 -30 -14 3 -37 22 -52 41 -21 28 -27 48 -31 110 -4 67 -2 79
22 124 15 27 37 54 49 59 34 17 99 14 122 -6z m224 -7 c0 -7 -11 -16 -26 -19
l-25 -7 2 -108 c2 -111 8 -129 46 -149 28 -15 34 -15 31 1 -2 6 4 11 12 9 29
-7 40 29 40 135 0 101 -1 104 -25 115 -27 12 -33 33 -12 41 22 8 98 0 110 -12
9 -9 8 -14 -3 -21 -21 -13 -38 -98 -27 -133 7 -20 6 -36 -3 -52 -7 -14 -10
-39 -7 -59 8 -48 -18 -66 -94 -66 -46 0 -61 5 -83 25 -25 24 -26 27 -26 149 0
116 -1 125 -20 131 -27 9 -25 33 3 37 44 6 107 -4 107 -17z m372 14 c17 -11 4
-21 -29 -23 -46 -2 -49 -9 -47 -103 1 -48 3 -107 3 -129 1 -33 5 -43 21 -47
11 -3 23 -1 26 5 4 5 17 8 30 5 35 -6 43 4 48 62 6 56 11 69 23 57 12 -11 22
-140 12 -151 -9 -9 -278 -10 -287 0 -8 7 19 35 29 30 4 -3 20 -3 34 1 l25 6 0
118 c0 65 -3 125 -6 133 -4 11 -15 14 -40 10 -26 -4 -34 -2 -34 9 0 8 3 18 7
22 9 9 169 5 185 -5z m363 -22 c44 -45 60 -168 29 -233 -31 -65 -84 -82 -232
-75 -47 2 -41 34 8 41 l35 5 3 128 3 127 -36 0 c-24 0 -35 5 -35 14 0 29 195
23 225 -7z m323 18 c4 -3 1 -15 -6 -25 -10 -16 -8 -26 9 -55 23 -39 35 -37 54
9 12 27 11 33 -3 49 -22 24 -7 33 55 32 37 0 48 -4 51 -17 2 -12 -6 -21 -22
-28 -19 -7 -36 -30 -61 -84 -51 -109 -45 -165 17 -157 21 3 31 -14 23 -39 -6
-19 -13 -20 -92 -16 -46 2 -87 7 -90 10 -14 14 9 36 37 36 30 0 30 0 30 58 -1
73 -53 183 -91 192 -38 9 -36 38 3 43 38 4 78 1 86 -8z m409 -33 c30 -40 33
-49 33 -118 0 -118 -32 -171 -111 -181 -88 -12 -139 47 -139 163 0 74 17 123
56 159 24 22 36 25 78 23 46 -3 53 -7 83 -46z m352 33 c16 -9 13 -25 -4 -25
-10 0 -15 -10 -15 -29 0 -17 -4 -32 -9 -35 -8 -6 -6 -55 4 -88 3 -9 1 -19 -5
-23 -5 -3 -10 -28 -10 -55 0 -39 -4 -52 -22 -64 -33 -23 -113 -21 -149 5 l-29
20 0 129 0 128 -26 6 c-48 12 -20 31 46 31 66 0 92 -17 45 -29 l-26 -7 2 -107
c2 -112 13 -145 49 -155 11 -3 18 0 17 7 -1 6 8 10 20 9 29 -3 32 11 34 130 2
96 1 99 -25 124 -22 20 -25 27 -15 34 15 9 101 5 118 -6z m350 1 c60 -31 75
-102 29 -134 -22 -16 -23 -40 -2 -70 8 -12 12 -26 9 -32 -10 -16 13 -48 37
-52 29 -4 39 -49 11 -47 -70 5 -77 10 -93 84 -15 68 -17 70 -45 68 -38 -3 -47
-14 -49 -60 -1 -30 3 -40 22 -48 12 -5 21 -16 20 -24 -2 -11 -19 -15 -65 -15
-72 -1 -89 15 -42 40 25 12 30 20 24 37 -8 27 -8 22 1 134 6 90 6 91 -16 95
-13 1 -25 8 -27 15 -3 8 14 13 54 16 32 2 68 4 81 5 13 1 36 -5 51 -12z m372
-3 c6 -6 14 -32 17 -58 4 -42 3 -47 -14 -43 -14 2 -19 12 -19 33 0 32 -20 41
-97 44 l-38 1 0 -49 c0 -34 4 -51 15 -55 22 -8 45 4 45 24 0 10 7 20 15 24 17
6 16 8 16 -69 0 -75 0 -75 -12 -75 -5 0 -15 14 -21 31 -8 23 -16 29 -32 27
-18 -3 -21 -11 -24 -57 -2 -40 0 -52 10 -49 7 3 26 1 43 -3 44 -13 63 -3 71
37 8 41 21 52 40 32 11 -11 12 -25 5 -61 -5 -27 -11 -50 -13 -53 -8 -7 -248
-10 -260 -3 -21 13 1 39 32 39 30 0 30 0 31 58 1 31 2 89 2 127 l2 70 -37 3
c-42 4 -53 28 -15 34 58 8 227 2 238 -9z m208 -2 c10 -18 38 -109 68 -223 12
-45 20 -58 37 -60 11 -2 21 -10 21 -18 0 -12 -13 -15 -55 -15 -44 0 -55 3 -58
18 -2 10 3 17 13 17 11 0 15 7 13 23 -3 19 -10 22 -50 25 -40 3 -47 0 -53 -19
-6 -17 -1 -27 16 -40 l24 -18 -23 -8 c-12 -5 -40 -7 -63 -5 -31 3 -39 8 -37
21 2 9 13 17 24 19 19 3 25 21 55 153 33 148 46 173 68 130z m376 -11 c32 -27
47 -71 46 -142 -1 -80 -27 -140 -71 -158 -31 -13 -180 -18 -198 -6 -20 12 5
36 39 36 l28 0 3 118 c2 64 1 122 0 129 -2 6 -18 13 -35 15 -45 4 -46 26 0 30
62 5 171 -8 188 -22z m-4912 -703 c35 -8 47 -16 47 -29 0 -28 24 -21 43 12 22
37 39 38 67 3 19 -24 21 -35 15 -78 -4 -27 -7 -61 -6 -75 8 -129 6 -142 -16
-157 -20 -14 -24 -13 -48 11 -16 16 -25 36 -25 58 -1 33 -33 109 -60 141 -36
42 -43 47 -64 47 -13 0 -29 -7 -36 -15 -7 -9 -21 -13 -31 -10 -42 14 -110 -66
-130 -150 -16 -70 -12 -203 9 -263 10 -27 33 -67 51 -88 29 -32 36 -36 52 -26
30 19 66 14 83 -10 16 -22 16 -22 51 -4 32 17 75 85 75 119 0 23 29 55 57 62
34 8 53 -14 53 -65 0 -45 -55 -160 -77 -160 -9 0 -21 -6 -27 -13 -20 -24 -130
-48 -178 -38 -79 16 -114 38 -162 101 -56 76 -69 119 -69 240 -1 160 39 286
108 343 40 33 133 69 155 60 8 -3 36 -11 63 -16z m717 -58 c70 -72 78 -92 55
-135 -15 -29 -17 -39 -7 -55 10 -16 9 -19 -4 -19 -21 0 -84 -66 -84 -88 0 -9
13 -40 29 -69 19 -34 29 -67 29 -98 2 -58 12 -72 71 -89 49 -14 79 -50 68 -80
-6 -15 -17 -17 -89 -11 -64 5 -87 11 -100 26 -15 18 -29 68 -58 211 -6 32 -19
67 -28 79 -17 20 -19 21 -69 4 -29 -9 -57 -22 -62 -29 -16 -19 -41 -99 -41
-134 0 -37 37 -82 68 -82 34 0 45 -24 27 -59 -16 -32 -32 -40 -40 -18 -6 13
-153 15 -193 3 -17 -6 -23 -2 -28 20 -9 37 7 58 47 62 19 2 40 8 46 14 18 15
16 69 -3 97 -13 18 -14 28 -5 47 8 18 8 31 1 44 -8 15 -7 26 5 44 13 19 16 53
16 161 0 76 -3 140 -5 143 -3 3 -22 8 -42 11 -40 6 -61 29 -51 54 4 12 13 13
39 8 19 -5 92 -3 163 3 154 14 175 8 245 -65z m535 66 c66 -2 128 -7 138 -10
18 -7 34 -51 23 -62 -3 -3 -43 -8 -88 -10 -136 -6 -125 7 -124 -138 1 -111 3
-128 19 -136 20 -12 16 -42 -10 -71 -16 -18 -10 -38 11 -38 8 0 16 -11 18 -25
6 -27 -9 -35 -18 -10 -11 27 -19 16 -17 -22 1 -21 2 -53 2 -72 1 -31 2 -33 29
-25 41 11 77 7 127 -15 36 -16 45 -25 45 -44 0 -47 -15 -50 -217 -44 -105 3
-195 1 -205 -4 -21 -11 -63 4 -71 25 -4 9 0 31 9 49 15 32 16 32 96 34 44 1
82 3 84 5 8 9 21 195 14 208 -8 14 4 220 14 265 3 11 2 25 -2 30 -19 27 -106
54 -117 36 -10 -17 -75 -13 -81 4 -10 25 5 65 29 75 12 5 56 7 97 4 41 -3 129
-7 195 -9z m2191 -18 c12 -17 34 -72 48 -122 15 -49 33 -112 41 -139 8 -26 15
-54 15 -62 0 -7 6 -28 14 -46 8 -18 25 -77 37 -130 l22 -98 38 0 c28 0 42 -6
53 -22 15 -21 14 -24 -4 -42 -16 -16 -36 -20 -113 -23 -82 -3 -96 -1 -111 16
-25 28 -17 54 22 66 29 8 32 13 32 46 0 59 -18 69 -120 69 -100 0 -105 -3
-111 -75 -4 -38 -2 -41 29 -50 33 -9 54 -47 36 -65 -11 -10 -65 -14 -155 -12
-61 2 -67 4 -78 29 -15 32 -5 44 46 52 47 8 56 25 89 169 14 59 34 148 46 197
11 50 21 97 23 105 2 21 15 77 26 122 8 32 16 40 49 47 3 0 15 -14 26 -32z
m-1805 12 c49 -17 66 -35 83 -88 8 -25 24 -71 36 -101 12 -30 25 -65 28 -77 9
-30 25 -31 38 -2 25 52 65 191 60 205 -4 9 6 27 23 45 25 24 37 29 81 29 55 0
110 -22 110 -45 0 -7 -13 -22 -29 -31 -38 -23 -42 -49 -35 -274 5 -181 6 -186
35 -236 17 -30 29 -66 29 -86 l0 -35 -60 -7 c-71 -8 -129 1 -137 21 -4 9 7 27
26 45 34 32 34 29 38 183 1 61 4 148 7 195 4 99 -1 140 -20 140 -22 0 -45 -45
-43 -81 2 -19 -2 -43 -8 -54 -6 -11 -13 -47 -16 -80 -14 -132 -69 -208 -117
-160 -24 25 -89 260 -93 335 -2 38 -40 90 -52 71 -3 -6 -3 -16 0 -22 6 -9 10
-116 14 -426 1 -52 5 -66 26 -89 31 -34 31 -78 0 -81 -11 -1 -38 -5 -60 -9
-22 -3 -56 -2 -75 3 -47 12 -51 40 -11 73 28 24 31 33 36 96 4 57 8 375 6 451
-1 14 -11 24 -31 32 -20 6 -30 17 -30 30 0 20 9 25 70 34 14 3 28 5 31 6 3 0
21 -4 40 -10z m1056 -1 c35 -10 56 -50 69 -133 11 -73 10 -87 -9 -99 -13 -9
-22 -6 -42 15 -23 22 -24 28 -14 57 9 26 8 36 -2 49 -19 22 -74 44 -94 37 -8
-3 -27 1 -41 11 -21 14 -31 15 -54 5 -15 -6 -34 -10 -41 -9 -8 2 -26 0 -41 -4
-26 -7 -26 -7 -24 -97 3 -103 13 -120 65 -120 48 0 57 8 65 52 8 46 42 70 62
44 18 -25 17 -249 -1 -273 -20 -27 -47 -5 -63 51 -15 51 -43 67 -91 50 -26 -9
-26 -11 -27 -109 0 -104 8 -134 32 -114 15 12 90 3 100 -12 6 -11 74 -12 90
-1 20 13 34 50 34 91 0 81 86 115 105 41 6 -25 -19 -208 -30 -219 -4 -3 -54
-7 -113 -8 -59 -2 -111 -4 -117 -4 -5 -1 -51 1 -101 5 -79 5 -93 4 -98 -10 -4
-12 -10 -13 -19 -6 -6 6 -29 10 -50 10 -67 0 -86 35 -39 72 20 16 36 21 63 17
20 -3 42 -2 48 2 8 5 13 89 17 268 7 300 12 286 -88 281 -53 -3 -53 -3 -53 27
l0 30 175 5 c279 8 293 8 327 -2z m1646 -10 c42 -9 47 -13 41 -32 -9 -28 -22
-36 -61 -36 -36 0 -62 -31 -45 -53 9 -11 7 -190 -2 -205 -2 -4 0 -77 4 -162 5
-96 5 -159 -1 -166 -5 -7 -8 -18 -7 -25 5 -21 -69 -29 -86 -10 -16 18 -97 216
-101 246 -1 11 -12 36 -23 55 -11 19 -29 58 -40 85 -11 28 -30 67 -42 89 -20
33 -24 36 -33 20 -14 -24 -7 -279 7 -303 3 -4 1 -23 -4 -42 -9 -29 -7 -36 11
-51 12 -10 31 -18 43 -18 28 0 46 -18 46 -47 0 -33 -29 -43 -127 -45 -115 -2
-153 7 -153 36 0 35 26 64 53 59 44 -9 48 10 47 238 0 116 -2 222 -5 235 -3
13 -7 35 -10 49 -4 18 -12 25 -29 25 -44 0 -75 51 -40 64 28 11 138 6 163 -7
16 -7 43 -47 74 -107 50 -96 60 -122 92 -220 22 -66 63 -126 77 -112 14 14 -1
362 -16 368 -6 2 -29 5 -51 7 -38 4 -40 6 -40 38 0 31 3 35 35 41 43 8 158 1
223 -14z m479 0 c67 -14 117 -60 152 -138 50 -110 45 -343 -8 -413 -12 -15
-31 -40 -43 -55 -12 -16 -45 -40 -72 -55 -47 -24 -59 -26 -193 -26 -213 -1
-222 0 -230 12 -10 16 1 49 21 64 9 6 40 11 70 11 34 0 56 4 62 13 6 11 14
387 10 489 -2 37 -28 53 -82 46 -49 -5 -69 5 -69 35 0 10 6 20 13 22 25 11
317 7 369 -5z m-3582 -310 c0 -5 -4 -8 -10 -8 -5 0 -10 10 -10 23 0 18 2 19
10 7 5 -8 10 -18 10 -22z m20 -244 c0 -8 -4 -14 -10 -14 -5 0 -10 9 -10 21 0
11 5 17 10 14 6 -3 10 -13 10 -21z m-2145 -623 c3 -5 1 -12 -5 -16 -5 -3 -10
1 -10 9 0 18 6 21 15 7z m6567 -21 c73 -27 108 -80 108 -163 0 -48 -4 -59 -36
-95 -19 -23 -55 -50 -79 -62 -44 -21 -62 -49 -74 -115 -7 -36 -32 -43 -67 -20
-23 15 -25 21 -19 53 11 63 47 115 104 153 90 60 101 105 43 170 l-27 30 -88
-7 c-80 -6 -90 -9 -100 -31 -8 -19 -7 -27 11 -46 43 -46 11 -124 -46 -111 -39
10 -43 13 -58 49 -11 28 -11 40 1 82 8 26 18 53 23 60 14 21 82 63 105 64 12
0 31 4 42 9 29 13 91 5 157 -20z m-469 -10 c4 0 17 -11 29 -26 20 -22 23 -38
26 -151 2 -107 0 -128 -14 -144 -22 -24 -51 -24 -64 0 -5 11 -10 54 -10 96 0
79 -12 115 -49 149 -26 24 -66 15 -84 -20 -9 -18 -11 -43 -6 -92 4 -37 8 -138
8 -224 0 -156 8 -205 35 -195 22 9 118 -22 158 -50 67 -46 38 -68 -65 -50 -15
2 -30 0 -33 -4 -9 -15 -24 -10 -24 8 0 14 -2 14 -17 1 -14 -11 -36 -13 -101
-9 -46 3 -92 3 -102 -1 -11 -4 -39 -4 -62 0 -37 6 -43 11 -46 35 -4 34 25 47
103 47 30 0 56 4 59 9 3 4 8 111 12 237 3 126 6 231 7 234 4 17 -16 79 -26 82
-6 3 -33 -2 -58 -9 -63 -18 -79 -50 -65 -132 12 -77 -7 -136 -44 -136 -25 0
-25 0 -26 107 -1 59 2 128 7 155 15 80 21 82 201 86 87 1 160 6 163 9 3 3 23
2 43 -3 20 -5 40 -9 45 -9z m-3973 -2 c39 2 78 -17 84 -41 3 -12 2 -25 -2 -29
-4 -4 -54 -11 -110 -14 l-102 -7 0 -122 c0 -97 3 -125 15 -135 8 -7 15 -23 15
-36 0 -12 -7 -29 -15 -38 -20 -20 -19 -33 5 -39 14 -4 20 -13 20 -34 l0 -28
-20 25 -19 25 3 -73 c2 -40 6 -76 9 -78 2 -3 16 1 31 7 22 10 36 9 79 -4 78
-25 94 -39 82 -74 l-10 -28 -234 0 c-207 1 -235 3 -245 17 -7 12 -6 26 6 51
16 33 19 34 75 37 32 1 70 2 86 1 24 0 27 4 28 32 1 18 3 50 4 72 4 53 4 88 2
165 -1 36 2 106 7 155 l8 90 -41 18 c-47 20 -72 22 -88 6 -7 -7 -24 -8 -42 -4
-26 5 -31 11 -31 35 0 58 14 62 204 54 94 -4 182 -7 196 -6z m522 0 c31 -9 44
-9 59 0 13 8 25 9 37 3 16 -8 18 -24 17 -123 0 -107 -1 -113 -21 -116 -28 -4
-40 13 -56 78 -18 69 -52 95 -139 105 -57 7 -63 6 -97 -22 -47 -38 -60 -87
-38 -135 20 -41 62 -64 146 -78 36 -6 89 -23 118 -38 91 -46 138 -163 99 -248
-30 -67 -53 -94 -101 -116 -41 -19 -63 -23 -135 -21 -57 2 -96 8 -117 19 -31
17 -43 16 -75 -8 -9 -6 -24 -8 -34 -4 -16 6 -17 17 -10 124 3 64 9 120 11 124
10 16 35 -6 62 -55 42 -73 61 -88 126 -93 104 -9 186 51 186 137 0 54 -66 106
-120 96 -16 -4 -35 0 -46 8 -11 8 -29 15 -42 15 -67 1 -142 91 -142 170 1 63
43 138 95 167 46 26 150 31 217 11z m826 -9 c45 -17 23 -42 -55 -64 -22 -6
-28 -21 -25 -55 1 -8 2 -105 2 -215 0 -110 4 -213 8 -230 6 -20 21 -36 48 -50
29 -15 39 -26 39 -45 0 -22 -4 -25 -40 -26 -22 0 -65 -6 -95 -13 -48 -11 -61
-11 -93 2 -40 17 -43 23 -25 62 9 20 18 26 35 22 38 -7 48 18 48 117 1 50 3
97 5 105 9 26 -84 38 -222 28 -49 -4 -52 -12 -48 -151 l3 -78 42 -19 c48 -21
60 -41 45 -70 -12 -22 -5 -21 -140 -20 -111 1 -138 11 -126 47 6 20 58 54 82
54 15 0 15 6 17 338 0 117 -3 176 -11 184 -6 6 -32 12 -58 12 -56 1 -63 12
-30 47 23 24 29 26 138 28 93 2 117 -1 127 -13 21 -25 5 -45 -39 -52 -22 -4
-43 -11 -46 -16 -10 -16 -4 -181 6 -193 10 -12 47 -16 172 -17 72 -1 104 13
93 41 -14 34 -16 96 -4 119 19 35 1 56 -54 62 -25 3 -49 9 -53 13 -12 12 36
56 65 59 39 5 163 -4 189 -13z m-3287 -15 c38 -19 86 -78 99 -121 7 -21 14
-72 17 -113 l5 -76 -39 -27 c-21 -15 -47 -27 -56 -27 -9 0 -17 -6 -17 -14 0
-23 -13 -26 -55 -12 -29 10 -45 11 -63 3 -17 -8 -32 -8 -52 0 -23 9 -32 8 -41
-3 -14 -17 -18 -165 -5 -180 6 -6 29 -9 51 -7 79 7 147 -58 101 -96 -21 -17
-73 -20 -94 -5 -12 9 -22 9 -36 2 -11 -6 -41 -8 -68 -5 -27 4 -60 2 -74 -3
-18 -7 -32 -5 -57 9 -24 14 -36 15 -49 7 -29 -18 -45 7 -25 38 12 18 29 27 64
32 27 4 58 11 71 15 l22 9 -2 257 -3 258 -30 1 c-120 5 -139 12 -128 52 5 21
10 22 197 24 207 3 228 2 267 -18z m460 3 c25 -16 25 -47 0 -47 -11 0 -36 -9
-55 -21 l-36 -21 0 -184 c0 -157 2 -184 15 -184 8 0 15 -7 15 -15 0 -8 -7 -15
-15 -15 -8 0 -15 -5 -15 -11 0 -22 64 -109 84 -114 12 -4 31 -11 43 -17 25
-12 46 -2 24 11 -24 15 -1 34 34 28 26 -4 38 0 56 19 24 26 28 63 29 337 1
126 -6 156 -34 157 -6 1 -26 14 -45 30 -63 54 -18 76 136 68 76 -4 87 -7 104
-29 23 -30 19 -45 -13 -41 -20 2 -28 -4 -38 -27 -6 -16 -11 -42 -10 -58 3 -45
1 -53 -15 -53 -17 0 -20 -16 -5 -25 16 -10 12 -45 -5 -45 -8 0 -15 -4 -15 -10
0 -5 7 -10 15 -10 11 0 15 -11 15 -36 0 -19 5 -44 11 -55 8 -15 6 -27 -10 -52
-20 -34 -30 -136 -16 -170 23 -57 -66 -109 -195 -114 -78 -3 -140 9 -140 26 0
4 -15 14 -33 23 -49 23 -57 71 -58 346 0 216 -2 233 -19 242 -10 6 -27 10 -38
10 -11 0 -25 7 -32 15 -11 13 -9 20 11 41 24 26 25 26 127 20 57 -4 112 -12
123 -19z m542 12 c43 -12 73 -40 82 -77 3 -15 22 -52 40 -83 19 -31 40 -80 47
-109 17 -72 69 -174 91 -178 18 -4 18 6 12 179 -3 101 -8 185 -10 187 -3 3
-17 6 -32 7 -16 1 -38 3 -50 3 -19 2 -23 8 -23 37 0 19 3 36 8 36 48 8 210 5
248 -5 43 -11 49 -16 46 -36 -3 -32 -7 -34 -47 -32 -27 2 -38 -3 -50 -22 -10
-15 -13 -30 -9 -38 11 -17 12 -79 3 -153 -4 -33 -3 -127 1 -209 9 -183 1 -216
-55 -216 -40 0 -50 15 -104 165 -18 50 -51 127 -72 172 -21 44 -39 84 -39 89
0 4 -12 27 -26 52 -24 40 -28 43 -37 27 -13 -24 -8 -270 7 -293 2 -4 1 -26 -4
-47 -10 -47 -2 -61 43 -71 43 -9 57 -22 57 -50 0 -34 -27 -42 -140 -42 -109 0
-140 9 -140 38 0 41 19 62 49 55 51 -11 53 1 49 267 -2 134 -8 251 -12 261 -5
9 -16 17 -26 17 -27 0 -64 34 -57 53 10 25 87 34 150 16z m2539 -1 c42 -12 53
-27 79 -98 9 -25 28 -76 42 -115 28 -76 52 -95 62 -48 4 15 17 60 31 100 13
39 24 85 24 101 0 48 39 72 116 72 44 0 67 -5 78 -16 23 -22 20 -43 -9 -56
-14 -6 -25 -14 -26 -17 0 -3 -3 -15 -5 -26 -3 -11 -5 -106 -4 -212 1 -190 10
-249 40 -268 13 -8 31 -80 25 -98 -8 -20 -134 -31 -169 -15 -34 15 -35 51 -2
66 25 11 36 50 37 132 0 19 1 64 1 100 3 212 2 269 -5 276 -18 19 -42 -14 -49
-67 -14 -112 -52 -271 -71 -296 -5 -7 -25 -13 -43 -13 -39 0 -41 3 -76 129
-24 88 -38 150 -47 206 -8 54 -36 94 -53 76 -11 -10 -9 -15 5 -26 16 -11 17
-17 7 -36 -9 -16 -10 -59 -5 -158 4 -75 7 -167 7 -205 -1 -69 9 -104 34 -119
8 -4 14 -20 14 -35 0 -26 -4 -29 -57 -40 -66 -13 -121 -5 -137 21 -9 14 -4 24
27 53 l37 35 1 97 c1 53 2 174 3 267 l1 170 -27 3 c-28 3 -48 37 -31 52 20 19
94 23 145 8z m1078 -16 c18 -21 50 -139 50 -180 0 -11 -6 -25 -14 -32 -20 -16
-80 27 -70 50 21 47 17 69 -17 89 -19 12 -50 21 -69 21 -20 0 -40 4 -46 10
-10 10 -138 -1 -150 -13 -4 -4 -7 -48 -6 -99 1 -103 9 -118 68 -118 40 0 64
22 64 61 0 22 7 32 26 41 38 18 44 0 44 -143 0 -100 -3 -129 -15 -139 -21 -17
-43 -5 -50 27 -13 63 -28 78 -75 78 l-45 0 -5 -58 c-3 -33 -3 -82 0 -110 l5
-52 40 3 c22 2 56 -4 76 -12 20 -8 49 -13 65 -11 16 2 32 4 36 4 13 2 38 65
38 98 0 50 16 73 49 73 44 0 55 -21 47 -93 -18 -157 -19 -162 -46 -165 -27 -3
-291 -5 -353 -3 -21 1 -45 -3 -53 -10 -8 -6 -21 -8 -31 -4 -10 5 -26 7 -37 6
-39 -5 -66 9 -66 33 0 39 25 56 84 56 l53 0 7 128 c15 266 17 382 5 404 -10
18 -17 20 -69 15 -36 -3 -62 -1 -69 6 -17 17 -13 47 8 55 11 4 128 7 261 7
239 0 242 0 260 -23z m303 17 c44 -12 74 -41 82 -79 3 -15 21 -51 40 -80 19
-29 40 -78 46 -107 17 -74 69 -177 93 -181 18 -4 18 4 11 180 -4 100 -9 185
-11 187 -2 2 -16 5 -31 6 -16 1 -38 3 -50 3 -19 2 -23 8 -23 36 0 19 6 36 13
39 43 16 279 -2 292 -23 2 -4 1 -16 -2 -28 -4 -18 -13 -22 -44 -22 -30 0 -42
-6 -55 -25 -9 -14 -12 -29 -8 -37 11 -17 12 -79 3 -153 -4 -33 -3 -127 1 -209
9 -183 1 -216 -55 -216 -40 0 -50 15 -104 165 -18 50 -51 127 -72 172 -21 44
-39 84 -39 89 0 4 -12 27 -26 52 -24 40 -28 43 -37 27 -13 -24 -8 -270 7 -293
3 -5 1 -24 -4 -42 -12 -43 1 -67 42 -75 44 -10 58 -22 58 -51 0 -34 -27 -42
-140 -42 -109 0 -140 9 -140 38 0 41 19 62 49 55 51 -11 53 1 49 267 -2 134
-8 251 -12 261 -5 9 -16 17 -26 17 -27 0 -64 34 -57 53 10 25 87 34 150 16z
m-3080 -322 c-9 -16 -26 12 -18 30 7 17 8 17 15 -2 4 -11 5 -24 3 -28z m3962
-187 c-3 -5 -10 -10 -16 -10 -5 0 -9 5 -9 10 0 6 7 10 16 10 8 0 12 -4 9 -10z
m-5063 -42 c-9 -9 -12 -7 -12 12 0 19 3 21 12 12 9 -9 9 -15 0 -24z m5571 -6
l27 -28 -23 -44 c-20 -41 -25 -45 -60 -46 -88 -3 -117 111 -35 135 52 15 63
13 91 -17z m-4445 -1 c3 -8 -1 -12 -9 -9 -7 2 -15 10 -17 17 -3 8 1 12 9 9 7
-2 15 -10 17 -17z m3942 9 c0 -5 -4 -10 -10 -10 -5 0 -10 5 -10 10 0 6 5 10
10 10 6 0 10 -4 10 -10z m-2540 -24 c0 -11 -19 -15 -25 -6 -3 5 1 10 9 10 9 0
16 -2 16 -4z m5122 -536 c7 -11 19 -20 26 -20 11 0 12 -10 7 -42 -9 -53 -12
-59 -30 -51 -8 3 -15 0 -15 -6 0 -6 -4 -11 -10 -11 -22 0 -9 48 17 65 26 17
26 18 6 34 -23 18 -37 51 -23 51 6 0 15 -9 22 -20z m58 0 c0 -5 -8 -10 -17
-10 -15 0 -16 2 -3 10 19 12 20 12 20 0z m-130 -15 c0 -8 -4 -15 -10 -15 -5 0
-7 7 -4 15 4 8 8 15 10 15 2 0 4 -7 4 -15z m-993 -67 c-3 -8 -6 -5 -6 6 -1 11
2 17 5 13 3 -3 4 -12 1 -19z m931 1 c7 -12 11 -23 8 -26 -7 -7 -25 6 -36 28
-15 27 11 26 28 -2z m-88 -4 c10 -12 10 -18 0 -30 -13 -15 -60 -21 -60 -7 1
47 34 68 60 37z m226 -77 c18 -20 18 -21 1 -15 -11 4 -30 10 -43 13 -31 8 -31
24 -1 24 13 0 32 -10 43 -22z m-217 -6 c9 -16 5 -18 -32 -16 -59 2 -65 4 -39
14 12 5 29 7 37 4 8 -4 15 -1 15 5 0 16 8 13 19 -7z m181 -23 c0 -5 -11 -9
-25 -9 -33 0 -33 15 0 16 14 1 25 -2 25 -7z m-270 -19 c0 -5 -5 -10 -11 -10
-5 0 -7 5 -4 10 3 6 8 10 11 10 2 0 4 -4 4 -10z m60 0 c0 -5 -4 -10 -10 -10
-5 0 -10 5 -10 10 0 6 5 10 10 10 6 0 10 -4 10 -10z m100 -21 c0 -5 -4 -9 -10
-9 -5 0 -10 7 -10 16 0 8 5 12 10 9 6 -3 10 -10 10 -16z m-815 -9 c3 -5 -1
-10 -9 -10 -9 0 -16 5 -16 10 0 6 4 10 9 10 6 0 13 -4 16 -10z m616 -23 c-8
-8 -11 -7 -11 4 0 20 13 34 18 19 3 -7 -1 -17 -7 -23z m159 13 c0 -5 -6 -10
-14 -10 -21 0 -25 -23 -7 -37 14 -10 14 -12 -2 -19 -13 -5 -27 1 -45 20 -25
25 -26 26 -5 26 11 0 23 7 27 15 6 17 46 21 46 5z"/>
<path d="M10140 5730 c0 -5 5 -10 10 -10 6 0 10 5 10 10 0 6 -4 10 -10 10 -5
0 -10 -4 -10 -10z"/>
<path d="M10163 5721 c-13 -11 -23 -21 -23 -23 0 -3 64 -3 86 0 7 1 14 8 17
16 4 9 0 12 -13 9 -10 -3 -21 0 -24 6 -10 15 -17 13 -43 -8z"/>
<path d="M10277 5734 c-8 -8 1 -24 14 -24 5 0 9 7 9 15 0 15 -12 20 -23 9z"/>
<path d="M10210 5660 c0 -5 7 -10 15 -10 8 0 15 5 15 10 0 6 -7 10 -15 10 -8
0 -15 -4 -15 -10z"/>
<path d="M10262 5661 c-11 -7 -11 -9 1 -14 16 -6 27 0 27 15 0 10 -11 10 -28
-1z"/>
<path d="M8445 5640 c-21 -23 -4 -27 19 -4 18 17 20 24 8 24 -5 0 -17 -9 -27
-20z"/>
<path d="M10260 5610 c0 -5 5 -10 11 -10 5 0 7 5 4 10 -3 6 -8 10 -11 10 -2 0
-4 -4 -4 -10z"/>
<path d="M10248 5540 c-3 -16 -1 -30 4 -30 4 0 8 6 8 14 0 8 3 21 6 30 3 9 2
16 -4 16 -5 0 -12 -13 -14 -30z"/>
<path d="M10290 5546 c0 -7 8 -16 19 -19 14 -3 17 0 14 14 -6 22 -33 26 -33 5z"/>
<path d="M10331 5514 c-7 -8 -10 -18 -7 -21 7 -7 36 16 36 28 0 13 -13 10 -29
-7z"/>
<path d="M10676 5465 c-10 -8 -23 -12 -27 -9 -5 3 -9 0 -9 -5 0 -6 12 -11 27
-11 14 0 23 3 20 7 -4 3 1 12 11 19 9 7 13 13 7 13 -5 0 -19 -6 -29 -14z"/>
<path d="M10730 5451 c-19 -11 -46 -31 -59 -45 -14 -14 -30 -26 -37 -26 -21 0
-64 -60 -64 -89 0 -42 -20 -92 -52 -131 -41 -51 -34 -100 15 -100 15 0 18 -5
14 -25 -3 -18 1 -29 14 -35 34 -19 56 -11 73 25 12 26 23 35 41 35 31 0 35 8
26 50 -4 22 -15 39 -29 45 -16 7 -20 16 -17 35 2 14 7 46 11 73 5 38 13 52 38
69 17 12 33 26 34 30 6 14 24 8 19 -6 -3 -8 -2 -43 3 -78 15 -103 -5 -177 -64
-244 -26 -30 -53 -54 -59 -54 -7 0 -20 -18 -29 -40 -15 -37 -15 -40 0 -40 10
0 23 9 30 20 7 11 18 20 26 20 21 0 93 92 122 156 16 37 28 53 32 44 5 -16 22
-30 35 -30 4 0 -4 12 -18 27 -29 32 -27 24 -30 136 -1 68 1 87 12 87 11 0 11
4 3 21 -7 13 -8 25 -2 32 6 7 6 21 1 35 -10 27 -41 28 -89 3z"/>
<path d="M10615 5420 c-3 -5 -2 -10 4 -10 5 0 13 5 16 10 3 6 2 10 -4 10 -5 0
-13 -4 -16 -10z"/>
<path d="M10675 5210 c3 -5 8 -10 11 -10 2 0 4 5 4 10 0 6 -5 10 -11 10 -5 0
-7 -4 -4 -10z"/>
<path d="M10720 5180 c0 -5 5 -10 10 -10 6 0 10 5 10 10 0 6 -4 10 -10 10 -5
0 -10 -4 -10 -10z"/>
<path d="M10855 5180 c3 -5 11 -10 16 -10 6 0 7 5 4 10 -3 6 -11 10 -16 10 -6
0 -7 -4 -4 -10z"/>
<path d="M7700 5164 c0 -42 104 -171 131 -162 8 3 -2 19 -27 44 -22 22 -52 61
-67 87 -30 50 -37 56 -37 31z"/>
<path d="M10724 5139 c-3 -6 -1 -16 5 -22 8 -8 11 -5 11 11 0 24 -5 28 -16 11z"/>
<path d="M10258 5083 c7 -3 16 -2 19 1 4 3 -2 6 -13 5 -11 0 -14 -3 -6 -6z"/>
<path d="M10235 5050 c-3 -5 -1 -10 4 -10 6 0 11 5 11 10 0 6 -2 10 -4 10 -3
0 -8 -4 -11 -10z"/>
<path d="M10515 5025 c0 -14 3 -25 8 -25 4 0 7 11 7 25 0 14 -3 25 -7 25 -5 0
-8 -11 -8 -25z"/>
<path d="M10795 5010 c3 -5 8 -10 11 -10 2 0 4 5 4 10 0 6 -5 10 -11 10 -5 0
-7 -4 -4 -10z"/>
<path d="M10450 5000 c0 -5 7 -10 15 -10 8 0 15 5 15 10 0 6 -7 10 -15 10 -8
0 -15 -4 -15 -10z"/>
<path d="M10200 4979 c0 -5 5 -7 10 -4 6 3 10 8 10 11 0 2 -4 4 -10 4 -5 0
-10 -5 -10 -11z"/>
<path d="M10740 4951 c0 -17 18 -21 24 -6 3 9 0 15 -9 15 -8 0 -15 -4 -15 -9z"/>
<path d="M10426 4924 c-9 -23 -8 -24 12 -24 19 0 49 17 42 23 -17 15 -48 16
-54 1z"/>
<path d="M7919 4872 c13 -25 40 -46 48 -39 7 8 -14 35 -39 48 -17 9 -18 8 -9
-9z"/>
<path d="M10447 4870 c-3 -11 -2 -20 2 -20 3 0 12 9 19 20 10 16 10 20 -2 20
-7 0 -16 -9 -19 -20z"/>
<path d="M10370 4821 c0 -5 -3 -18 -7 -28 -6 -17 -6 -17 10 -1 19 18 22 38 7
38 -5 0 -10 -4 -10 -9z"/>
<path d="M10430 4803 c-13 -15 -12 -16 4 -10 10 4 20 7 22 7 2 0 4 5 4 10 0
15 -13 12 -30 -7z"/>
<path d="M9155 3951 c-27 -10 -57 -21 -65 -24 -8 -4 -49 -16 -90 -26 -41 -11
-68 -20 -60 -21 42 -5 107 4 157 21 67 23 91 23 117 4 28 -21 55 -18 92 10
l33 25 58 -20 c120 -43 198 -61 178 -41 -13 12 -189 77 -233 86 -20 4 -46 2
-63 -6 -23 -9 -33 -9 -42 0 -14 14 -20 13 -82 -8z"/>
<path d="M9207 3833 c-13 -13 -7 -32 13 -38 13 -4 20 -15 20 -31 0 -17 5 -24
20 -24 11 0 20 4 20 8 0 4 15 14 34 20 38 14 52 38 35 58 -12 15 -129 20 -142
7z"/>
<path d="M11970 6360 c0 -46 2 -50 23 -50 30 0 47 18 47 50 0 32 -17 50 -47
50 -21 0 -23 -4 -23 -50z"/>
<path d="M12352 6368 c-16 -16 -15 -63 2 -78 8 -6 25 -10 38 -8 20 3 23 9 23
48 0 41 -2 45 -25 48 -14 2 -31 -3 -38 -10z"/>
<path d="M8655 5387 c-5 -7 -18 -23 -29 -34 -18 -21 -18 -23 4 -52 27 -39 47
-41 24 -2 -16 27 -16 31 -1 45 18 18 37 21 37 6 0 -5 -4 -10 -10 -10 -5 0 -10
-7 -10 -15 0 -18 12 -19 28 -3 9 9 15 9 24 0 14 -14 28 -16 28 -3 0 9 -71 81
-80 81 -3 -1 -9 -6 -15 -13z"/>
<path d="M8700 5285 c-18 -22 -5 -30 19 -13 12 8 18 18 14 21 -10 11 -19 8
-33 -8z"/>
<path d="M9771 5361 c-36 -45 -38 -55 -11 -48 11 3 23 1 26 -4 9 -15 34 -10
34 6 0 8 -4 15 -10 15 -5 0 -10 7 -10 15 0 20 13 19 33 -3 21 -23 21 -31 1
-53 -8 -9 -12 -19 -7 -22 5 -3 18 10 31 29 l22 33 -31 36 c-17 19 -35 35 -39
35 -5 0 -22 -18 -39 -39z"/>
<path d="M9762 5278 c3 -7 13 -15 24 -17 16 -3 17 -1 5 13 -16 19 -34 21 -29
4z"/>
<path d="M8834 535 c-10 -8 -14 -14 -9 -14 6 0 19 6 29 14 11 8 15 15 10 15
-6 0 -19 -7 -30 -15z"/>
<path d="M9100 495 c0 -19 5 -35 11 -35 5 0 8 4 4 9 -3 5 -1 12 4 15 11 7 2
46 -10 46 -5 0 -9 -16 -9 -35z"/>
<path d="M8748 493 c7 -3 16 -2 19 1 4 3 -2 6 -13 5 -11 0 -14 -3 -6 -6z"/>
<path d="M8706 470 c-19 -6 -19 -7 1 -12 25 -7 53 6 31 14 -7 3 -22 2 -32 -2z"/>
<path d="M8940 460 c0 -5 5 -10 10 -10 6 0 10 5 10 10 0 6 -4 10 -10 10 -5 0
-10 -4 -10 -10z"/>
<path d="M8998 453 c7 -3 16 -2 19 1 4 3 -2 6 -13 5 -11 0 -14 -3 -6 -6z"/>
<path d="M8690 430 c0 -6 7 -10 15 -10 8 0 15 2 15 4 0 2 -7 6 -15 10 -8 3
-15 1 -15 -4z"/>
<path d="M8870 431 c0 -16 38 -56 46 -48 5 4 4 11 -2 15 -6 4 -13 15 -17 25
-7 17 -27 24 -27 8z"/>
<path d="M9158 433 c6 -2 18 -2 25 0 6 3 1 5 -13 5 -14 0 -19 -2 -12 -5z"/>
<path d="M9020 424 c0 -13 27 -29 50 -31 25 -2 25 -2 -2 9 -16 7 -28 15 -28
20 0 4 -4 8 -10 8 -5 0 -10 -3 -10 -6z"/>
<path d="M8826 403 c-6 -14 -5 -15 5 -6 7 7 10 15 7 18 -3 3 -9 -2 -12 -12z"/>
<path d="M9005 380 c-4 -6 3 -10 14 -10 25 0 27 6 6 13 -8 4 -17 2 -20 -3z"/>
<path d="M8740 370 c0 -5 5 -10 10 -10 6 0 10 5 10 10 0 6 -4 10 -10 10 -5 0
-10 -4 -10 -10z"/>
<path d="M8770 350 c0 -5 4 -10 9 -10 6 0 13 5 16 10 3 6 -1 10 -9 10 -9 0
-16 -4 -16 -10z"/>
<path d="M8817 340 c-4 -15 0 -20 13 -20 13 0 17 5 13 20 -3 11 -9 20 -13 20
-4 0 -10 -9 -13 -20z"/>
<path d="M9195 340 c-3 -5 -1 -10 4 -10 6 0 11 5 11 10 0 6 -2 10 -4 10 -3 0
-8 -4 -11 -10z"/>
<path d="M9147 204 c-13 -13 -7 -24 14 -24 11 0 19 5 17 12 -5 14 -22 21 -31
12z"/>
<path d="M9062 175 c-12 -14 -26 -25 -31 -25 -5 0 -11 -7 -15 -15 -4 -11 1
-15 18 -15 14 0 26 7 30 18 3 9 10 27 16 40 12 28 9 28 -18 -3z"/>
<path d="M10076 3815 c-3 -8 -1 -15 4 -15 6 0 10 7 10 15 0 8 -2 15 -4 15 -2
0 -6 -7 -10 -15z"/>
<path d="M10060 3751 c0 -5 7 -12 16 -15 14 -5 15 -4 4 9 -14 17 -20 19 -20 6z"/>
<path d="M10150 3725 c0 -9 5 -15 11 -13 6 2 11 8 11 13 0 5 -5 11 -11 13 -6
2 -11 -4 -11 -13z"/>
<path d="M9240 2898 c0 -9 5 -20 10 -23 13 -8 13 5 0 25 -8 13 -10 13 -10 -2z"/>
<path d="M9438 588 c9 -9 15 -9 24 0 9 9 7 12 -12 12 -19 0 -21 -3 -12 -12z"/>
<path d="M9670 570 c-13 -8 -12 -10 3 -10 9 0 17 -4 17 -10 0 -5 7 -10 15 -10
9 0 15 9 15 21 0 17 -3 19 -14 10 -9 -8 -15 -8 -18 -2 -2 7 -8 7 -18 1z"/>
<path d="M9640 520 c0 -5 5 -10 10 -10 6 0 10 5 10 10 0 6 -4 10 -10 10 -5 0
-10 -4 -10 -10z"/>
<path d="M9680 521 c0 -6 5 -13 10 -16 6 -3 10 1 10 9 0 9 -4 16 -10 16 -5 0
-10 -4 -10 -9z"/>
<path d="M9497 513 c-4 -3 -7 -11 -7 -17 0 -6 5 -5 12 2 6 6 9 14 7 17 -3 3
-9 2 -12 -2z"/>
<path d="M9546 496 c3 -9 11 -16 16 -16 13 0 5 23 -10 28 -7 2 -10 -2 -6 -12z"/>
<path d="M9630 484 c-22 -12 -22 -14 -5 -14 24 0 51 16 39 22 -5 3 -20 -1 -34
-8z"/>
<path d="M9303 411 c0 -11 5 -17 9 -15 11 7 10 34 -1 34 -6 0 -9 -9 -8 -19z"/>
<path d="M3377 3383 c-48 -51 -55 -111 -22 -189 13 -32 66 -74 92 -74 27 0 65
47 78 97 11 43 11 60 0 104 -17 64 -31 79 -81 86 -34 4 -43 1 -67 -24z"/>
<path d="M4361 3401 c-13 -9 -22 -133 -14 -208 5 -42 9 -53 24 -53 34 0 66 22
83 56 19 41 21 129 3 163 -13 26 -77 54 -96 42z"/>
<path d="M5042 3379 c-64 -65 -49 -195 27 -237 33 -19 43 -21 65 -11 50 23 72
86 62 173 -9 66 -30 94 -81 102 -37 5 -44 3 -73 -27z"/>
<path d="M5802 3401 c-9 -5 -16 -54 -13 -87 1 -7 21 -12 51 -12 55 0 63 7 67
55 1 25 -3 34 -20 39 -31 10 -73 13 -85 5z"/>
<path d="M6455 3335 c-4 -16 -11 -46 -16 -65 -9 -38 1 -52 36 -48 17 3 20 9
16 48 -2 25 -9 56 -16 70 l-13 25 -7 -30z"/>
<path d="M6752 3402 c-9 -6 -13 -43 -13 -131 0 -68 2 -125 5 -129 4 -3 23 -1
43 4 45 11 73 53 78 120 6 66 -15 110 -61 129 -43 18 -36 17 -52 7z"/>
<path d="M2393 2648 c-18 -9 -23 -20 -23 -47 0 -20 -3 -58 -6 -86 -8 -73 6
-87 76 -76 43 7 60 6 78 -5 21 -14 27 -13 60 4 36 18 37 21 37 73 1 30 4 60 8
66 12 20 -10 50 -45 63 -45 16 -158 21 -185 8z"/>
<path d="M5342 2523 c-50 -198 -54 -227 -36 -240 20 -14 102 -17 122 -5 22 15
-38 270 -66 280 -6 2 -15 -14 -20 -35z"/>
<path d="M6634 2650 c-12 -5 -25 -13 -28 -18 -3 -5 -5 -99 -5 -208 1 -110 0
-227 -1 -261 -1 -61 -1 -61 30 -68 47 -10 119 15 160 55 52 52 83 149 81 256
0 47 -5 93 -11 104 -5 10 -10 30 -10 43 0 30 -29 50 -118 83 -74 27 -69 26
-98 14z"/>
<path d="M1000 1405 c-11 -13 -12 -25 -3 -58 6 -23 9 -71 7 -107 -3 -36 -1
-71 5 -79 5 -8 33 -16 66 -19 71 -6 146 25 175 73 25 41 36 110 20 129 -17 22
-89 53 -135 60 -22 3 -58 9 -80 12 -31 5 -44 2 -55 -11z"/>
<path d="M9360 260 c0 -5 5 -10 10 -10 6 0 10 5 10 10 0 6 -4 10 -10 10 -5 0
-10 -4 -10 -10z"/>
</g>
</svg>
